HIERARCHY
ROOT root
{
	OFFSET 0.000000 0.000000 0.000000
	CHANNELS 6 Xposition Yposition Zposition Zrotation Yrotation Xrotation
	JOINT lhip
	{
		OFFSET 0.058581 -0.082280 -0.017664
		CHANNELS 3 Zrotation Yrotation Xrotation
		JOINT lknee
		{
			OFFSET 0.043451 -0.386469 0.008037
			CHANNELS 3 Zrotation Yrotation Xrotation
			JOINT lankle
			{
				OFFSET -0.014790 -0.426874 -0.037428
				CHANNELS 3 Zrotation Yrotation Xrotation
				JOINT ltoe
				{
					OFFSET 0.041054 -0.060286 0.122042
					CHANNELS 3 Zrotation Yrotation Xrotation
					End Site
					{
						OFFSET 0.000000 0.000000 0.000000
					}
				}
			}
		}
	}
	JOINT rhip
	{
		OFFSET -0.060310 -0.090513 -0.013543
		CHANNELS 3 Zrotation Yrotation Xrotation
		JOINT rknee
		{
			OFFSET -0.043257 -0.383688 -0.004843
			CHANNELS 3 Zrotation Yrotation Xrotation
			JOINT rankle
			{
				OFFSET 0.019056 -0.420046 -0.034562
				CHANNELS 3 Zrotation Yrotation Xrotation
				JOINT rtoe
				{
					OFFSET -0.034840 -0.062106 0.130323
					CHANNELS 3 Zrotation Yrotation Xrotation
					End Site
					{
						OFFSET 0.000000 0.000000 0.000000
					}
				}
			}
		}
	}
	JOINT lowerback
	{
		OFFSET 0.004439 0.124404 -0.038385
		CHANNELS 3 Zrotation Yrotation Xrotation
		JOINT upperback
		{
			OFFSET 0.004488 0.137956 0.026820
			CHANNELS 3 Zrotation Yrotation Xrotation
			JOINT chest
			{
				OFFSET -0.002265 0.056032 0.002855
				CHANNELS 3 Zrotation Yrotation Xrotation
				JOINT lowerneck
				{
					OFFSET -0.013390 0.211636 -0.033468
					CHANNELS 3 Zrotation Yrotation Xrotation
					JOINT upperneck
					{
						OFFSET 0.010113 0.088937 0.050410
						CHANNELS 3 Zrotation Yrotation Xrotation
						End Site
						{
							OFFSET 0.000000 0.000000 0.000000
						}
					}
				}
				JOINT lclavicle
				{
					OFFSET 0.071702 0.114000 -0.018898
					CHANNELS 3 Zrotation Yrotation Xrotation
					JOINT lshoulder
					{
						OFFSET 0.122921 0.045205 -0.019046
						CHANNELS 3 Zrotation Yrotation Xrotation
						JOINT lelbow
						{
							OFFSET 0.255332 -0.015649 -0.022946
							CHANNELS 3 Zrotation Yrotation Xrotation
							JOINT lwrist
							{
								OFFSET 0.265709 0.012698 -0.007375
								CHANNELS 3 Zrotation Yrotation Xrotation
								End Site
								{
									OFFSET 0.000000 0.000000 0.000000
								}
							}
						}
					}
				}
				JOINT rclavicle
				{
					OFFSET -0.082954 0.112472 -0.023707
					CHANNELS 3 Zrotation Yrotation Xrotation
					JOINT rshoulder
					{
						OFFSET -0.113228 0.046853 -0.008472
						CHANNELS 3 Zrotation Yrotation Xrotation
						JOINT relbow
						{
							OFFSET -0.260127 -0.014369 -0.031269
							CHANNELS 3 Zrotation Yrotation Xrotation
							JOINT rwrist
							{
								OFFSET -0.269108 0.006794 -0.006027
								CHANNELS 3 Zrotation Yrotation Xrotation
								End Site
								{
									OFFSET 0.000000 0.000000 0.000000
								}
							}
						}
					}
				}
			}
		}
	}
}
MOTION
Frames: 11
Frame Time: 0.033333
0.181964 -0.164309 0.961056 144.461507 4.418296 92.804257 25.405581 15.751064 0.950911 1.395838 6.334574 18.439672 -19.807081 2.778408 2.226431 0.000000 -0.000000 0.000000 6.202661 10.804621 -23.874994 3.095889 9.353259 27.320332 4.270987 7.172698 -12.714150 0.000000 -0.000000 0.000000 -9.010023 -10.662617 16.455357 0.766420 -24.306261 2.893193 -1.584002 -12.435947 -9.867605 -19.806612 53.838801 -3.026190 -3.521155 30.501964 -0.874844 28.834795 -63.061140 -35.901897 25.123921 -70.506090 -45.590266 6.009332 -22.855239 6.364143 25.343977 -26.772363 12.509274 -6.765312 20.123266 -13.186452 30.827232 21.699610 -4.056629 -109.914966 40.275389 -70.709924 -55.657310 22.739333 -21.703119 
0.178400 -0.163405 0.962014 144.579182 4.224867 92.819240 24.948351 16.152050 0.748916 1.568273 6.659059 18.509302 -19.875941 2.260310 2.041985 0.000000 -0.000000 0.000000 5.849031 10.268414 -23.914842 2.885596 9.292134 27.151437 4.529391 7.629091 -12.525607 0.000000 -0.000000 0.000000 -8.672250 -10.625928 16.935585 0.790277 -24.189501 2.538321 -1.622378 -12.539428 -9.247474 -20.885984 53.991069 -4.208505 -3.356717 30.372040 -0.327944 29.281171 -61.870802 -36.402297 24.488017 -70.975273 -45.678664 5.895416 -22.532583 6.333249 24.565896 -26.162219 12.402199 -7.621629 19.083984 -13.786424 32.076893 22.687675 -3.391845 -108.782736 41.000990 -70.857127 -55.953143 21.809416 -22.853728 
0.173219 -0.162847 0.963204 144.962375 3.988813 93.040987 24.532646 16.405568 0.281862 1.283681 7.410545 18.338772 -19.642462 2.193957 2.158392 0.000000 -0.000000 0.000000 5.134205 9.764764 -24.159703 2.788696 8.934005 26.683672 5.084376 7.984802 -12.003594 0.000000 -0.000000 0.000000 -8.437633 -10.452593 17.286972 0.825566 -24.111368 2.742319 -1.609997 -12.468054 -9.299750 -20.393406 53.749550 -3.687071 -3.443905 30.244873 -0.512544 28.248586 -62.332404 -35.418809 25.080721 -70.910764 -45.861489 5.854386 -21.785436 5.659824 22.540811 -24.935491 12.305089 -7.423467 19.223162 -13.669263 32.267918 22.898495 -2.861449 -107.589295 40.751050 -70.833627 -55.149189 20.643158 -23.638468 
0.166425 -0.162471 0.964372 145.765395 3.692483 93.178644 24.123550 16.973177 -0.355616 0.811069 7.431808 18.093359 -19.377747 2.001984 2.463557 0.000000 -0.000000 0.000000 4.357984 8.730467 -24.404334 2.645330 8.450661 26.343210 5.579813 8.453844 -11.568971 0.000000 -0.000000 0.000000 -8.221156 -10.090809 18.170253 1.062806 -24.034867 2.614216 -1.367622 -12.129117 -9.111626 -20.273067 53.533706 -3.464975 -3.413285 29.692748 -0.335329 28.357366 -62.436605 -35.420077 24.405972 -70.769584 -45.431045 5.795534 -21.524548 5.518435 21.312493 -23.522623 11.860893 -7.597209 19.022723 -14.103300 32.738147 22.926008 -2.911705 -106.557210 41.240576 -70.903141 -54.395997 18.841375 -24.924612 
0.158366 -0.162661 0.965675 146.817154 3.424415 93.420068 23.711790 17.143758 -1.047828 0.221150 7.101682 17.778518 -19.249036 1.182031 2.170372 0.000000 -0.000000 0.000000 3.430619 7.434067 -24.728171 2.775062 7.844947 25.848973 5.972004 8.671723 -10.919561 0.000000 -0.000000 0.000000 -7.661329 -9.839431 18.648588 1.170666 -23.876851 2.682274 -1.303943 -12.468296 -8.701139 -21.196603 53.558127 -4.175091 -3.272058 29.429197 -0.301688 28.145453 -61.514242 -35.390867 22.042664 -71.187499 -43.573083 5.617200 -20.874427 6.337497 20.579640 -22.218960 11.012165 -7.512681 19.718615 -13.583287 33.276013 24.133671 -2.790940 -104.946043 40.817690 -70.371729 -53.377213 16.566177 -26.233846 
0.148599 -0.163243 0.966785 148.151485 3.044185 93.748045 22.795324 16.905284 -1.880603 -0.133342 6.084750 17.332234 -18.980473 0.244295 1.075558 0.000000 -0.000000 0.000000 2.169450 6.129068 -25.195176 2.912083 6.907198 25.388027 6.668234 8.756850 -10.417502 0.000000 -0.000000 0.000000 -7.229024 -9.374743 19.174761 1.232850 -23.698168 2.719821 -1.046123 -12.448570 -8.606619 -20.060516 53.149782 -2.728336 -3.558533 29.493701 -0.296776 27.038938 -61.719572 -34.417013 20.114490 -71.073193 -41.809966 5.436234 -20.220119 5.806690 18.752280 -20.426258 10.741582 -7.212403 20.396652 -13.279010 33.944758 24.587557 -2.189350 -103.089165 40.644711 -70.331696 -52.124561 14.925243 -27.169343 
0.137626 -0.164184 0.967466 149.810547 2.656863 93.976967 21.943256 16.837148 -2.990802 -0.749079 6.267860 17.167149 -17.985977 -0.373547 0.276903 0.000000 -0.000000 0.000000 0.888832 4.687381 -25.645567 2.969602 5.680838 25.090736 7.358796 8.721698 -9.773644 0.000000 -0.000000 0.000000 -6.754594 -8.790491 19.884723 1.547584 -23.445738 2.769990 -0.846234 -12.566299 -8.083069 -20.079006 52.693706 -2.991136 -3.590931 28.787620 0.092976 26.450136 -61.106304 -33.793726 18.053352 -71.332687 -40.119464 5.384124 -19.483857 6.036808 17.598424 -19.219423 10.136335 -6.829364 20.627955 -13.481471 34.904048 25.793543 -1.276454 -101.046830 40.629820 -69.653623 -51.166414 13.092473 -27.998619 
0.125233 -0.165707 0.967813 151.846399 2.218957 94.177436 20.622921 16.504638 -4.294053 -1.081098 6.202390 16.886003 -16.415923 -0.658624 -1.178656 0.000000 -0.000000 0.000000 -0.483018 3.174377 -25.978897 3.000020 4.601117 24.697142 8.053383 8.489348 -9.174895 0.000000 -0.000000 0.000000 -6.342476 -7.995684 20.495300 1.775592 -23.289102 3.062634 -0.627492 -12.258189 -7.854929 -18.724530 52.128189 -1.527049 -3.209338 28.192498 -0.038514 25.689874 -62.031312 -32.782982 16.285085 -70.735985 -38.175523 4.541555 -18.230608 6.498421 17.681466 -18.112687 10.388453 -6.231361 21.447538 -13.283392 35.929516 25.835403 -0.548325 -99.111952 40.449404 -69.249021 -50.104027 11.832019 -29.364986 
0.111627 -0.167485 0.967893 154.530191 1.866197 94.397013 19.317477 16.133964 -5.925247 -1.426161 6.495671 16.682183 -14.943642 -1.204792 -2.782874 0.000000 -0.000000 0.000000 -2.008461 1.586345 -26.230959 3.029629 2.834478 24.356847 8.599005 8.191394 -8.675190 0.000000 -0.000000 0.000000 -5.604453 -7.340895 21.119582 2.336809 -23.174244 3.155648 -0.361666 -12.143702 -7.439132 -17.188075 51.335703 -0.120731 -3.396605 27.120630 0.506601 24.611335 -61.842469 -31.632559 13.104947 -70.856175 -35.626059 4.295921 -17.240354 6.729295 16.954737 -17.492440 10.335824 -5.479228 21.853214 -12.910775 37.403208 26.744998 0.594918 -97.162909 40.416547 -68.748837 -48.726718 10.095695 -30.138406 
0.096793 -0.170271 0.967662 158.010997 1.565644 94.647061 17.859942 15.984998 -8.398736 -1.815819 7.235269 16.945762 -12.758003 -1.386729 -3.834083 0.000000 -0.000000 0.000000 -3.442589 -0.033294 -26.202421 2.707669 1.061757 23.811143 9.155200 7.506922 -8.283340 0.000000 -0.000000 0.000000 -4.828483 -6.776428 21.671301 3.205022 -23.152366 3.455542 0.088912 -12.009697 -6.933200 -15.850391 50.018120 0.879794 -3.320174 25.968916 1.121943 22.681674 -61.582410 -29.640189 9.860778 -71.122862 -33.277069 3.917244 -16.475933 6.871581 16.438148 -16.616034 10.277251 -4.273082 22.343036 -12.133531 38.705360 27.654393 1.383032 -95.429626 40.265280 -68.305823 -46.827494 8.852299 -30.848813 
0.080813 -0.173988 0.966586 162.397657 1.275629 95.037088 16.050565 14.968311 -11.464653 -2.090187 7.252677 17.510231 -10.428279 -1.307698 -5.452042 0.000000 -0.000000 0.000000 -4.998444 -1.506999 -26.088382 2.405634 -0.726383 23.463826 9.214209 6.170903 -8.241483 0.000000 -0.000000 0.000000 -3.805540 -5.901529 21.812917 4.388239 -23.233964 3.764424 0.662722 -12.023939 -6.047593 -14.133512 48.100494 2.220384 -3.258037 24.537623 1.497957 20.801512 -61.785201 -27.789184 4.936741 -71.500629 -29.171975 3.573025 -15.414855 7.886544 16.637957 -15.459380 9.551914 -2.838668 22.948892 -11.048595 39.983886 28.063978 2.331110 -93.742396 40.204909 -67.955398 -47.305172 6.313697 -31.709711 
